<svg width="23" height="26" viewBox="0 0 23 26" fill="none" xmlns="http://www.w3.org/2000/svg">
<path d="M11.5 0C8.91924 0 6.44418 1.0044 4.61931 2.79225C2.79443 4.5801 1.76923 7.00494 1.76923 9.53333L1.76923 17.3333H0L0 19.0667H23V17.3333H21.2308V9.53333C21.2308 7.00494 20.2056 4.5801 18.3807 2.79225C16.5558 1.0044 14.0808 0 11.5 0ZM7.07692 21.6667V20.8H15.9231V21.6667C15.9231 22.8159 15.4571 23.9181 14.6276 24.7308C13.7981 25.5435 12.6731 26 11.5 26C10.3269 26 9.2019 25.5435 8.37241 24.7308C7.54292 23.9181 7.07692 22.8159 7.07692 21.6667Z" fill="white"/>
</svg>
