<svg width="28" height="28" viewBox="0 0 28 28" fill="none" xmlns="http://www.w3.org/2000/svg">
<path d="M24.5 12.8335H24.3017C23.0732 12.8335 22.0174 12.053 21.5519 10.9155L21.5274 10.8583C21.0514 9.7185 21.2369 8.41183 22.1107 7.538L22.2495 7.39916C22.3579 7.29084 22.4438 7.16225 22.5024 7.02073C22.561 6.8792 22.5912 6.72752 22.5912 6.57433C22.5912 6.42114 22.561 6.26946 22.5024 6.12793C22.4438 5.98641 22.3579 5.85781 22.2495 5.7495C22.1412 5.64118 22.0126 5.55525 21.8711 5.49663C21.7296 5.43801 21.5779 5.40784 21.4247 5.40784C21.2715 5.40784 21.1198 5.43801 20.9783 5.49663C20.8368 5.55525 20.7082 5.64118 20.5999 5.7495L20.461 5.88833C19.5872 6.76216 18.2805 6.94766 17.1407 6.47166L17.0835 6.44716C15.9472 5.98283 15.1667 4.92116 15.1667 3.69266V3.59816C15.1667 2.855 14.6452 2.3335 14 2.3335C13.3549 2.3335 12.8334 2.855 12.8334 3.50016V3.54216C12.8334 4.82083 12.0634 5.9735 10.8815 6.46233L10.8745 6.46583C10.2968 6.70497 9.66115 6.76743 9.04792 6.64532C8.43469 6.52322 7.87144 6.22203 7.42937 5.77983L7.40021 5.75066C7.29189 5.64234 7.1633 5.55642 7.02177 5.4978C6.88025 5.43918 6.72856 5.40901 6.57537 5.40901C6.42219 5.40901 6.2705 5.43918 6.12898 5.4978C5.98745 5.55642 5.85886 5.64234 5.75054 5.75066C5.64222 5.85898 5.5563 5.98757 5.49768 6.1291C5.43906 6.27063 5.40888 6.42231 5.40888 6.5755C5.40888 6.72868 5.43906 6.88037 5.49768 7.02189C5.5563 7.16342 5.64222 7.29201 5.75054 7.40033L5.79254 7.44233C6.23083 7.881 6.52934 8.43968 6.65039 9.04785C6.77145 9.65603 6.70962 10.2864 6.47271 10.8595L6.44121 10.9342C6.20827 11.4962 5.81398 11.9766 5.30814 12.3147C4.8023 12.6527 4.20761 12.8333 3.59921 12.8335H3.59804C2.85487 12.8335 2.33337 13.355 2.33337 14.0002C2.33337 14.6453 2.85487 15.1668 3.50004 15.1668H3.57937C4.19371 15.1667 4.79427 15.3489 5.30497 15.6903C5.81568 16.0317 6.21356 16.5171 6.44821 17.0848L6.47271 17.142C6.70962 17.7151 6.77145 18.3455 6.65039 18.9536C6.52934 19.5618 6.23083 20.1205 5.79254 20.5592L5.75054 20.6012C5.53178 20.8199 5.40888 21.1166 5.40888 21.426C5.40888 21.7354 5.53178 22.0321 5.75054 22.2508C5.9693 22.4696 6.266 22.5925 6.57537 22.5925C6.88475 22.5925 7.18145 22.4696 7.40021 22.2508L7.44221 22.2088C7.88079 21.7704 8.43948 21.4718 9.04769 21.3507C9.65589 21.2297 10.2863 21.2916 10.8594 21.5287L11.0262 21.5987C11.5613 21.8196 12.0187 22.1945 12.3404 22.6757C12.6622 23.157 12.8337 23.7229 12.8334 24.3018V24.401C12.8334 25.1453 13.3549 25.6668 14 25.6668C14.6452 25.6668 15.1667 25.1442 15.1667 24.5002V24.3018C15.1667 23.1177 15.8795 22.0502 16.975 21.5975L17.269 21.4762C17.8043 21.2542 18.3933 21.1961 18.9616 21.3093C19.5299 21.4225 20.0517 21.7019 20.461 22.112L20.5999 22.2508C20.7082 22.3592 20.8368 22.4451 20.9783 22.5037C21.1198 22.5623 21.2715 22.5925 21.4247 22.5925C21.5779 22.5925 21.7296 22.5623 21.8711 22.5037C22.0126 22.4451 22.1412 22.3592 22.2495 22.2508C22.3579 22.1425 22.4438 22.0139 22.5024 21.8724C22.561 21.7309 22.5912 21.5792 22.5912 21.426C22.5912 21.2728 22.561 21.1211 22.5024 20.9796C22.4438 20.8381 22.3579 20.7095 22.2495 20.6012L22.1107 20.4623C21.2369 19.5885 21.0514 18.2818 21.5274 17.142L21.5519 17.0848C22.0174 15.9473 23.079 15.1668 24.3075 15.1668H24.4009C25.1452 15.1668 25.6667 14.6453 25.6667 14.0002C25.6667 13.355 25.1452 12.8335 24.5 12.8335V12.8335ZM9.33337 15.1668C9.02396 15.1668 8.72721 15.0439 8.50842 14.8251C8.28962 14.6063 8.16671 14.3096 8.16671 14.0002C8.16671 13.6907 8.28962 13.394 8.50842 13.1752C8.72721 12.9564 9.02396 12.8335 9.33337 12.8335C9.64279 12.8335 9.93954 12.9564 10.1583 13.1752C10.3771 13.394 10.5 13.6907 10.5 14.0002C10.5 14.3096 10.3771 14.6063 10.1583 14.8251C9.93954 15.0439 9.64279 15.1668 9.33337 15.1668V15.1668ZM15.1667 19.2502C14.8573 19.2502 14.5605 19.1272 14.3418 18.9085C14.123 18.6897 14 18.3929 14 18.0835C14 17.7741 14.123 17.4773 14.3418 17.2585C14.5605 17.0397 14.8573 16.9168 15.1667 16.9168C15.4761 16.9168 15.7729 17.0397 15.9917 17.2585C16.2105 17.4773 16.3334 17.7741 16.3334 18.0835C16.3334 18.3929 16.2105 18.6897 15.9917 18.9085C15.7729 19.1272 15.4761 19.2502 15.1667 19.2502ZM16.3334 14.0002C16.0269 14.0001 15.7234 13.9396 15.4403 13.8223C15.1571 13.7049 14.8999 13.5329 14.6832 13.3162C14.4665 13.0994 14.2947 12.8421 14.1775 12.5589C14.0603 12.2757 14 11.9722 14 11.6657C14.0001 11.3592 14.0606 11.0557 14.1779 10.7726C14.2953 10.4894 14.4673 10.2322 14.684 10.0155C14.9008 9.79884 15.1582 9.62699 15.4413 9.50977C15.7245 9.39255 16.028 9.33225 16.3345 9.33233C16.9535 9.33248 17.5471 9.57853 17.9847 10.0163C18.4223 10.4541 18.668 11.0478 18.6679 11.6668C18.6677 12.2858 18.4217 12.8794 17.9839 13.317C17.5461 13.7546 16.9524 14.0003 16.3334 14.0002V14.0002Z" fill="white"/>
</svg>
