<svg width="360" height="95" viewBox="0 0 360 95" fill="none" xmlns="http://www.w3.org/2000/svg">
<path fill-rule="evenodd" clip-rule="evenodd" d="M360 95V0C360 11.5736 353.284 20.9559 345 20.9559H15C6.71574 20.9559 0 11.5736 0 0V95H360Z" fill="url(#paint0_linear_499_369)"/>
<path d="M233.152 52.4041L235 50.5695L229.43 45L227.595 46.8478L229.43 48.7086L227.595 50.5695L224.803 47.7782L222.955 45.9173L221.107 47.7782L222.025 48.7086L209.771 60.9484C209.355 61.3624 209.091 61.9038 209.019 62.4858C208.948 63.0679 209.074 63.657 209.377 64.159L211.081 67.029L209.02 70.8067L212.968 68.916L215.839 70.6327C216.236 70.8683 216.688 70.9949 217.149 70.9997C217.502 71.0052 217.852 70.9396 218.178 70.8067C218.505 70.6739 218.801 70.4765 219.05 70.2265L231.291 57.9867L232.222 58.9041L234.083 57.0563L232.222 55.1954L229.43 52.4041L231.291 50.5695L233.152 52.4041ZM229.43 56.1128L217.189 68.3656L213.702 66.2951L211.632 62.8093L212.759 61.6691L216.468 65.3778L218.329 63.53L214.62 59.8214L216.468 57.9736L220.177 61.6691L222.025 59.8214L218.316 56.1128L220.177 54.265L223.886 57.9736L225.734 56.1128L222.025 52.4041L223.886 50.5695L229.43 56.1128Z" fill="white"/>
<path d="M297.265 56.1038L299.255 54.162C299.799 53.63 300.181 52.9369 300.353 52.1718C300.524 51.4066 300.477 50.6043 300.218 49.8677L299.369 47.4542C299.052 46.5532 298.425 45.8148 297.614 45.3894C296.804 44.9641 295.872 44.8839 295.008 45.165C291.829 46.2011 289.385 49.3487 290.137 53.0864C290.632 55.5453 291.579 58.6318 293.372 61.9156C295.169 65.2073 297.222 67.6386 298.982 69.3476C301.639 71.923 305.437 71.2796 307.881 68.8523C308.536 68.2017 308.934 67.3095 308.992 66.3576C309.051 65.4057 308.767 64.4657 308.198 63.7292L306.641 61.7163C306.172 61.1076 305.542 60.6624 304.834 60.438C304.125 60.2137 303.369 60.2203 302.664 60.4572L300.092 61.3196C299.428 60.5896 298.846 59.7797 298.358 58.9061C297.887 58.0227 297.52 57.0809 297.265 56.1019V56.1038Z" fill="white"/>
<path d="M149.291 48.4667H151.703C152.342 48.4667 152.955 48.7406 153.408 49.2282C153.86 49.7158 154.114 50.3771 154.114 51.0667V68.4C154.114 69.0896 153.86 69.7509 153.408 70.2385C152.955 70.7261 152.342 71 151.703 71H132.411C131.772 71 131.159 70.7261 130.706 70.2385C130.254 69.7509 130 69.0896 130 68.4V51.0667C130 50.3771 130.254 49.7158 130.706 49.2282C131.159 48.7406 131.772 48.4667 132.411 48.4667H134.823V45H136.43V48.4667H147.684V45H149.291V48.4667Z" fill="white"/>
<path d="M63.5794 45.2081C63.4338 45.0738 63.2485 45 63.057 45C62.8654 45 62.6801 45.0738 62.5345 45.2081L51 55.868V68.4C51 69.0896 51.2541 69.7509 51.7063 70.2385C52.1585 70.7261 52.7719 71 53.4114 71H59.8418C60.0549 71 60.2594 70.9087 60.4101 70.7462C60.5609 70.5836 60.6456 70.3632 60.6456 70.1333V64.9333C60.6456 64.2438 60.8996 63.5825 61.3518 63.0949C61.8041 62.6073 62.4174 62.3334 63.057 62.3334C63.6965 62.3334 64.3098 62.6073 64.7621 63.0949C65.2143 63.5825 65.4683 64.2438 65.4683 64.9333V70.1333C65.4683 70.3632 65.553 70.5836 65.7038 70.7462C65.8545 70.9087 66.059 71 66.2721 71H72.7025C73.3421 71 73.9554 70.7261 74.4076 70.2385C74.8599 69.7509 75.1139 69.0896 75.1139 68.4V55.868L63.5794 45.2081Z" fill="#1B4868"/>
<path d="M66.973 41.5361L66.9692 41.5325C65.9346 40.5784 64.5508 40 63.057 40C61.5632 40 60.1794 40.5784 59.1448 41.5325L59.1409 41.5361L47.6064 52.196L46 53.6807V55.868V68.4C46 70.2992 46.6962 72.1894 48.0403 73.6385C49.3961 75.1004 51.3191 76 53.4114 76H59.8418C61.0275 76 62.1362 75.6368 63.057 75.0177C63.9777 75.6368 65.0865 76 66.2721 76H72.7025C74.7948 76 76.7178 75.1004 78.0736 73.6385C79.4177 72.1894 80.1139 70.2992 80.1139 68.4V55.868V53.6807L78.5075 52.196L66.973 41.5361Z" stroke="#0090BD" stroke-opacity="0.1" stroke-width="10"/>
<defs>
<linearGradient id="paint0_linear_499_369" x1="180" y1="0" x2="180" y2="95" gradientUnits="userSpaceOnUse">
<stop offset="0.15625" stop-color="#00FFAA"/>
<stop offset="1" stop-color="#0090BD"/>
</linearGradient>
</defs>
</svg>
