
<svg width="37" height="30" viewBox="0 0 37 30" fill="none" xmlns="http://www.w3.org/2000/svg">
<path d="M27.0577 29.596C27.6089 29.0817 27.6595 28.1917 27.1758 27.6138L24.8081 24.782V21.6209C24.8081 21.303 24.7069 20.9967 24.5213 20.7482L20.7758 15.7493V15.732L28.2781 22.7709C31.4838 26.2268 36.9727 23.7765 36.9727 18.8874C36.9727 16.1192 35.0606 13.7844 32.5073 13.4434L23.9027 12.0622L26.1973 9.69857C26.6359 9.2478 26.7259 8.53697 26.4166 7.97639L25.0781 5.5665L27.2264 2.62494C27.6764 2.01235 27.5695 1.12815 26.9846 0.654259C26.3997 0.180372 25.5674 0.290175 25.1175 0.90854L22.418 4.60139C22.0862 5.05794 22.0468 5.67631 22.3224 6.17331L23.599 8.45028L20.7758 11.3572V9.14955C20.7758 8.28846 20.2021 7.56607 19.426 7.35803V4.05238C19.426 3.7981 19.2236 3.59005 18.9761 3.59005C18.7287 3.59005 18.5262 3.7981 18.5262 4.05238V7.35803C17.7501 7.56607 17.1765 8.28846 17.1765 9.14955V11.3514L14.3532 8.45028L15.6242 6.16753C15.8998 5.67053 15.8604 5.05216 15.5286 4.59561L12.8291 0.902761C12.3792 0.290175 11.5469 0.174593 10.962 0.64848C10.3771 1.12237 10.2759 2.00657 10.7202 2.61916L12.8685 5.56072L11.5244 7.97061C11.2151 8.53119 11.3051 9.24202 11.7437 9.69279L14.0383 12.0564L5.43366 13.4377C2.89163 13.7844 0.979492 16.1192 0.979492 18.8874C0.979492 23.7765 6.46846 26.2268 9.67411 22.7651L17.1765 15.732V15.7493L13.4365 20.7424C13.2509 20.9909 13.1497 21.2972 13.1497 21.6151V24.7763L10.782 27.608C10.2984 28.1917 10.349 29.0817 10.9001 29.5903C11.4513 30.0988 12.2892 30.0468 12.7785 29.4689L15.478 26.2384C15.6917 25.9841 15.8098 25.6489 15.8098 25.3079V22.1063L17.1765 20.2801V23.9267C17.1765 24.9496 17.9807 25.7761 18.9761 25.7761C19.9716 25.7761 20.7758 24.9496 20.7758 23.9267V20.2801L22.1424 22.1063V25.3079C22.1424 25.6489 22.2605 25.9841 22.4742 26.2384L25.1737 29.4689C25.6574 30.0526 26.501 30.1046 27.0521 29.5903L27.0577 29.596Z" fill="white"/>
</svg>
