<svg width="38" height="30" viewBox="0 0 38 30" fill="none" xmlns="http://www.w3.org/2000/svg">
<path d="M26.954 29.6457C27.5127 29.1242 27.564 28.2219 27.0737 27.6359L24.6734 24.7648V21.5598C24.6734 21.2375 24.5708 20.9269 24.3827 20.675L20.5855 15.6066V15.5891L28.1912 22.7258C31.441 26.2297 37.0055 23.7453 37.0055 18.7883C37.0055 15.9816 35.0671 13.6144 32.4786 13.2687L23.7555 11.8684L26.0817 9.47187C26.5264 9.01484 26.6176 8.29414 26.304 7.72578L24.9471 5.28242L27.125 2.3C27.5811 1.6789 27.4728 0.782419 26.8799 0.30195C26.2869 -0.178519 25.4431 -0.0671906 24.987 0.559762L22.2503 4.3039C21.9139 4.76679 21.874 5.39375 22.1534 5.89765L23.4476 8.20625L20.5855 11.1535V8.91523C20.5855 8.04218 20.004 7.30976 19.2172 7.09882V3.74726C19.2172 3.48945 19.0119 3.27851 18.7611 3.27851C18.5102 3.27851 18.305 3.48945 18.305 3.74726V7.09882C17.5182 7.30976 16.9366 8.04218 16.9366 8.91523V11.1477L14.0745 8.20625L15.363 5.89179C15.6424 5.38789 15.6025 4.76093 15.2661 4.29804L12.5294 0.553903C12.0733 -0.0671906 11.2295 -0.184378 10.6366 0.296091C10.0436 0.776559 9.94101 1.67304 10.3914 2.29414L12.5694 5.27656L11.2067 7.71992C10.8931 8.28828 10.9844 9.00898 11.4291 9.46601L13.7552 11.8625L5.03211 13.2629C2.45508 13.6145 0.516602 15.9816 0.516602 18.7883C0.516602 23.7453 6.08117 26.2297 9.33096 22.7199L16.9366 15.5891V15.6066L13.1452 20.6691C12.9571 20.9211 12.8544 21.2316 12.8544 21.5539V24.759L10.4541 27.6301C9.96382 28.2219 10.0151 29.1242 10.5739 29.6398C11.1326 30.1555 11.9821 30.1027 12.4781 29.5168L15.2148 26.2414C15.4315 25.9836 15.5512 25.6437 15.5512 25.298V22.0519L16.9366 20.2004V23.8977C16.9366 24.9348 17.7519 25.7727 18.7611 25.7727C19.7702 25.7727 20.5855 24.9348 20.5855 23.8977V20.2004L21.971 22.0519V25.298C21.971 25.6437 22.0907 25.9836 22.3073 26.2414L25.044 29.5168C25.5343 30.1086 26.3895 30.1613 26.9483 29.6398L26.954 29.6457Z" fill="white"/>
</svg>
