<svg width="29" height="40" viewBox="0 0 29 40" fill="none" xmlns="http://www.w3.org/2000/svg">
<path d="M26.4688 4.3241C26.2054 4.003 25.8272 3.80091 25.4171 3.76211C25.007 3.72332 24.5984 3.85099 24.281 4.11715L23.4843 4.78353C22.3057 3.81606 20.86 3.24334 19.3467 3.14442L19.2047 2.16161C19.1437 1.74777 18.9231 1.37545 18.5914 1.12655C18.2597 0.877653 17.844 0.772568 17.4359 0.834411C17.0278 0.896255 16.6606 1.11996 16.4151 1.45632C16.1697 1.79268 16.066 2.21413 16.127 2.62797L16.2683 3.60389C15.8113 3.78222 15.373 4.00655 14.96 4.2735C14.1243 4.82081 13.321 5.41758 12.5545 6.06071L11.9881 5.43891C11.7075 5.13839 11.3218 4.96176 10.9139 4.94712C10.5061 4.93248 10.109 5.08101 9.80822 5.36066C9.50745 5.64031 9.32716 6.02866 9.30627 6.4419C9.28538 6.85514 9.42555 7.26015 9.69654 7.56952L10.2643 8.19438C9.25896 9.26832 8.34797 10.4291 7.54165 11.6636L6.78726 11.2216C6.43036 11.013 6.00665 10.9559 5.60838 11.0626C5.2101 11.1692 4.86952 11.4312 4.66078 11.7913C4.55755 11.9691 4.49004 12.166 4.46212 12.3704C4.43421 12.5749 4.44645 12.7829 4.49814 12.9825C4.54983 13.1822 4.63994 13.3694 4.7633 13.5336C4.88665 13.6978 5.04081 13.8356 5.2169 13.9391L5.97129 14.3811C5.32214 15.7026 4.78675 17.0783 4.37108 18.4932L3.5032 18.2898C3.30267 18.2354 3.09342 18.2225 2.88786 18.2516C2.68229 18.2808 2.48459 18.3515 2.30646 18.4595C2.12834 18.5676 1.97343 18.7108 1.85091 18.8807C1.72838 19.0506 1.64074 19.2437 1.59317 19.4486C1.54561 19.6535 1.53909 19.866 1.574 20.0734C1.60892 20.2809 1.68455 20.4792 1.79642 20.6565C1.90829 20.8338 2.05412 20.9865 2.22528 21.1056C2.39643 21.2246 2.58941 21.3077 2.7928 21.3497L3.66763 21.5544C3.42277 23.0057 3.30249 24.4757 3.30816 25.948L2.41536 26.013C2.2098 26.0234 2.00835 26.0752 1.82277 26.1655C1.63719 26.2557 1.47122 26.3826 1.33454 26.5386C1.19786 26.6946 1.09323 26.8767 1.02675 27.0743C0.960267 27.2718 0.933277 27.4807 0.947352 27.6889C0.961427 27.8972 1.01629 28.1004 1.10872 28.2869C1.20116 28.4734 1.32932 28.6393 1.48572 28.7749C1.64211 28.9106 1.82361 29.0133 2.01959 29.077C2.21558 29.1408 2.42212 29.1642 2.62716 29.1461L3.52546 29.0824C3.63621 29.9967 3.7955 30.9042 4.00265 31.8011C4.13841 32.3477 4.33523 32.8767 4.58929 33.3781L3.77539 34.0577C3.45909 34.3232 3.25976 34.7052 3.22125 35.1197C3.18274 35.5342 3.30819 35.9473 3.57003 36.268C3.83186 36.5888 4.20861 36.7909 4.61741 36.8299C5.02621 36.869 5.43357 36.7418 5.74986 36.4763L6.54032 35.8154C7.71882 36.7795 9.16376 37.3482 10.6751 37.4428L10.8207 38.4443C10.8509 38.6484 10.9204 38.8445 11.0254 39.0213C11.1303 39.1982 11.2686 39.3523 11.4323 39.475C11.596 39.5976 11.7819 39.6864 11.9795 39.7361C12.177 39.7859 12.3823 39.7957 12.5836 39.765C12.7145 39.7443 12.8424 39.7074 12.9644 39.655C13.2813 39.5193 13.5448 39.2809 13.7136 38.9771C13.8825 38.6732 13.9472 38.3212 13.8976 37.9761L13.7526 36.9829C13.8365 36.9504 13.9286 36.9324 14.0105 36.8971C15.3132 36.3278 16.4236 35.3851 17.2053 34.1848L18.1961 34.6051C18.5732 34.758 18.9945 34.755 19.3694 34.5966C19.7443 34.4383 20.0431 34.1372 20.2016 33.7579C20.3601 33.3787 20.3657 32.9516 20.2172 32.5683C20.0686 32.185 19.7778 31.8759 19.4072 31.7075L18.3523 31.26C18.5189 30.2811 18.4887 29.2781 18.2634 28.3114C18.1594 27.8503 18.0861 27.3827 18.0441 26.9116L18.9118 26.9448C19.1171 26.9562 19.3225 26.9262 19.5162 26.8563C19.7098 26.7865 19.8879 26.6783 20.0399 26.538C20.1919 26.3977 20.3149 26.2282 20.4017 26.0393C20.4884 25.8503 20.5373 25.6458 20.5453 25.4375C20.5534 25.2292 20.5205 25.0214 20.4486 24.8262C20.3766 24.6309 20.2671 24.4521 20.1264 24.3002C19.9857 24.1483 19.8165 24.0263 19.6288 23.9413C19.4412 23.8564 19.2387 23.8101 19.0332 23.8052L18.1862 23.774C18.206 23.6702 18.2111 23.5634 18.2341 23.4604C18.32 23.1102 18.4237 22.7647 18.5448 22.4254C18.6973 21.967 18.8805 21.5197 19.0933 21.0867C19.2535 20.7512 19.4308 20.4244 19.6244 20.1076C19.6893 20.0075 19.7629 19.9116 19.83 19.812L20.4474 20.3974C20.596 20.5394 20.7708 20.6503 20.9616 20.7237C21.1525 20.7972 21.3558 20.8319 21.5599 20.8257C21.764 20.8195 21.9649 20.7727 22.1511 20.6878C22.3373 20.6029 22.5052 20.4816 22.6452 20.3309C22.7852 20.1802 22.8946 20.0031 22.9671 19.8095C23.0396 19.6159 23.0737 19.4098 23.0676 19.2029C23.0616 18.9959 23.0153 18.7922 22.9316 18.6034C22.8479 18.4146 22.7283 18.2443 22.5797 18.1023L21.9465 17.5013C22.2307 17.2592 22.5275 17.0326 22.8355 16.8226C23.7401 16.2327 24.5044 15.4467 25.0732 14.5211L26.184 14.9084C26.3782 14.9864 26.586 15.0237 26.7949 15.0182C27.0037 15.0128 27.2093 14.9646 27.3993 14.8766C27.5894 14.7885 27.7599 14.6625 27.9007 14.506C28.0416 14.3496 28.1498 14.1658 28.2189 13.9659C28.288 13.766 28.3165 13.554 28.3029 13.3426C28.2892 13.1312 28.2335 12.9248 28.1393 12.7358C28.045 12.5467 27.914 12.3789 27.7543 12.2424C27.5945 12.106 27.4091 12.0036 27.2094 11.9415L26.1306 11.5642C26.3356 10.0809 26.0895 8.56952 25.425 7.23185L26.2569 6.53584C26.4144 6.405 26.5449 6.24389 26.6408 6.06177C26.7368 5.87966 26.7963 5.68012 26.816 5.47461C26.8357 5.2691 26.8152 5.06168 26.7556 4.86424C26.696 4.66681 26.5985 4.48325 26.4688 4.3241ZM12.0989 29.6384C11.5267 29.8849 10.8952 29.9537 10.2844 29.8363C9.67351 29.7189 9.11073 29.4204 8.66717 28.9787C8.22362 28.5369 7.9192 27.9717 7.79243 27.3545C7.66566 26.7373 7.72223 26.0959 7.95498 25.5113C8.18772 24.9267 8.5862 24.4253 9.10001 24.0703C9.61383 23.7154 10.2199 23.5229 10.8416 23.5172C11.4633 23.5116 12.0727 23.6929 12.5927 24.0385C13.1127 24.384 13.52 24.8781 13.7631 25.4584C14.0891 26.2364 14.0969 27.114 13.7848 27.8979C13.4727 28.6818 12.8662 29.3078 12.0989 29.6384ZM13.4388 19.2489C13.1526 19.3722 12.8369 19.4066 12.5315 19.3479C12.2261 19.2892 11.9447 19.14 11.7229 18.9191C11.5011 18.6982 11.3489 18.4156 11.2855 18.107C11.2221 17.7984 11.2504 17.4777 11.3668 17.1854C11.4832 16.8931 11.6824 16.6424 11.9393 16.4649C12.1962 16.2874 12.4993 16.1912 12.8101 16.1884C13.121 16.1855 13.4257 16.2762 13.6857 16.449C13.9457 16.6218 14.1493 16.8688 14.2709 17.1589C14.4339 17.548 14.4377 17.9867 14.2817 18.3787C14.1256 18.7706 13.8224 19.0837 13.4388 19.2489Z" fill="white"/>
</svg>
