<svg width="375" height="99" viewBox="0 0 375 99" fill="none" xmlns="http://www.w3.org/2000/svg">
<path fill-rule="evenodd" clip-rule="evenodd" d="M375 98.9793V0.0209961C375 12.0768 368.004 21.85 359.375 21.85H15.625C6.99556 21.85 0 12.0768 0 0.0209961V98.9793H375Z" fill="url(#paint0_linear_499_369)"/>
<path d="M242.867 54.6086L244.792 52.6975L238.99 46.896L237.078 48.8207L238.99 50.7591L237.078 52.6975L234.17 49.7899L232.245 47.8515L230.32 49.7899L231.276 50.7591L218.511 63.5089C218.078 63.9402 217.803 64.5041 217.729 65.1104C217.654 65.7167 217.786 66.3304 218.101 66.8533L219.876 69.8428L217.729 73.778L221.842 71.8085L224.832 73.5968C225.246 73.8422 225.716 73.974 226.197 73.979C226.564 73.9848 226.929 73.9164 227.269 73.778C227.609 73.6396 227.918 73.4341 228.177 73.1736L240.928 60.4238L241.897 61.3794L243.836 59.4546L241.897 57.5162L238.99 54.6086L240.928 52.6975L242.867 54.6086ZM238.99 58.4718L226.238 71.2352L222.607 69.0784L220.45 65.4473L221.624 64.2597L225.487 68.1228L227.426 66.1981L223.562 62.3349L225.487 60.4102L229.351 64.2597L231.276 62.3349L227.412 58.4718L229.351 56.547L233.215 60.4102L235.14 58.4718L231.276 54.6086L233.215 52.6975L238.99 58.4718Z" fill="white"/>
<path d="M309.651 58.4625L311.723 56.4397C312.29 55.8855 312.689 55.1636 312.867 54.3666C313.046 53.5696 312.997 52.7338 312.727 51.9666L311.843 49.4525C311.513 48.5139 310.859 47.7447 310.015 47.3017C309.171 46.8586 308.2 46.775 307.3 47.0679C303.988 48.1471 301.443 51.4259 302.226 55.3194C302.741 57.8807 303.728 61.0958 305.596 64.5164C307.468 67.9453 309.606 70.4779 311.44 72.2581C314.207 74.9408 318.164 74.2706 320.709 71.7421C321.392 71.0645 321.806 70.1351 321.867 69.1435C321.928 68.1519 321.632 67.1728 321.039 66.4056L319.418 64.3088C318.929 63.6747 318.273 63.211 317.535 62.9773C316.797 62.7436 316.009 62.7505 315.275 62.9973L312.596 63.8956C311.904 63.1352 311.298 62.2915 310.789 61.3815C310.299 60.4613 309.916 59.4802 309.651 58.4604V58.4625Z" fill="white"/>
<path d="M155.512 50.5071H158.024C158.69 50.5071 159.329 50.7924 159.8 51.3004C160.271 51.8083 160.535 52.4971 160.535 53.2154V71.271C160.535 71.9893 160.271 72.6782 159.8 73.1861C159.329 73.694 158.69 73.9793 158.024 73.9793H137.929C137.262 73.9793 136.624 73.694 136.152 73.1861C135.681 72.6782 135.417 71.9893 135.417 71.271V53.2154C135.417 52.4971 135.681 51.8083 136.152 51.3004C136.624 50.7924 137.262 50.5071 137.929 50.5071H140.44V46.896H142.115V50.5071H153.837V46.896H155.512V50.5071Z" fill="white"/>
<path d="M66.2286 47.1127C66.0769 46.9729 65.8839 46.896 65.6843 46.896C65.4848 46.896 65.2918 46.9729 65.1401 47.1127L53.125 58.2169V71.271C53.125 71.9893 53.3896 72.6782 53.8607 73.1861C54.3318 73.694 54.9707 73.9793 55.6369 73.9793H62.3352C62.5572 73.9793 62.7702 73.8842 62.9272 73.7149C63.0843 73.5456 63.1725 73.316 63.1725 73.0766V67.6599C63.1725 66.9416 63.4371 66.2527 63.9082 65.7448C64.3792 65.2369 65.0181 64.9516 65.6843 64.9516C66.3505 64.9516 66.9894 65.2369 67.4605 65.7448C67.9316 66.2527 68.1962 66.9416 68.1962 67.6599V73.0766C68.1962 73.316 68.2844 73.5456 68.4414 73.7149C68.5985 73.8842 68.8114 73.9793 69.0335 73.9793H75.7318C76.398 73.9793 77.0369 73.694 77.508 73.1861C77.979 72.6782 78.2437 71.9893 78.2437 71.271V58.2169L66.2286 47.1127Z" fill="#1B4868"/>
<path d="M69.6222 43.4407L69.6183 43.4372C68.5776 42.4774 67.1861 41.896 65.6843 41.896C64.1825 41.896 62.791 42.4774 61.7504 43.4372L61.7465 43.4407L49.7314 54.5449L48.125 56.0295V58.2169V71.271C48.125 73.199 48.8318 75.1167 50.1947 76.5861C51.5694 78.0683 53.5179 78.9793 55.6369 78.9793H62.3352C63.5775 78.9793 64.736 78.5828 65.6843 77.9113C66.6327 78.5828 67.7912 78.9793 69.0335 78.9793H75.7318C77.8508 78.9793 79.7993 78.0683 81.174 76.5861C82.5368 75.1167 83.2437 73.199 83.2437 71.271V58.2169V56.0295L81.6373 54.5449L69.6222 43.4407Z" stroke="#0090BD" stroke-opacity="0.1" stroke-width="10"/>
<defs>
<linearGradient id="paint0_linear_499_369" x1="187.5" y1="0.0209961" x2="187.5" y2="98.9793" gradientUnits="userSpaceOnUse">
<stop offset="0.15625" stop-color="#00FFAA"/>
<stop offset="1" stop-color="#0090BD"/>
</linearGradient>
</defs>
</svg>
