<svg width="20" height="18" viewBox="0 0 20 18" fill="none" xmlns="http://www.w3.org/2000/svg">
<path d="M1.42542 5.39484L9.92542 10.1477L18.4254 5.39484M2.6397 1.8302H17.2111C17.5332 1.8302 17.842 1.95539 18.0698 2.17822C18.2975 2.40105 18.4254 2.70328 18.4254 3.01841V14.9006C18.4254 15.2157 18.2975 15.5179 18.0698 15.7408C17.842 15.9636 17.5332 16.0888 17.2111 16.0888H2.6397C2.31765 16.0888 2.00879 15.9636 1.78107 15.7408C1.55335 15.5179 1.42542 15.2157 1.42542 14.9006V3.01841C1.42542 2.70328 1.55335 2.40105 1.78107 2.17822C2.00879 1.95539 2.31765 1.8302 2.6397 1.8302V1.8302Z" stroke="#B5B5B5" stroke-width="2"/>
</svg>


