<svg width="18" height="20" viewBox="0 0 18 20" fill="none" xmlns="http://www.w3.org/2000/svg">
<path d="M5.60576 8.77961V4.98954C5.60576 3.98435 5.98887 3.02033 6.6708 2.30955C7.35273 1.59877 8.27764 1.19946 9.24204 1.19946C10.2064 1.19946 11.1313 1.59877 11.8133 2.30955C12.4952 3.02033 12.8783 3.98435 12.8783 4.98954V5.62122M3.18157 8.77961H15.3025C15.624 8.77961 15.9323 8.91272 16.1596 9.14964C16.3869 9.38657 16.5146 9.70791 16.5146 10.043V17.6231C16.5146 17.9582 16.3869 18.2795 16.1596 18.5164C15.9323 18.7534 15.624 18.8865 15.3025 18.8865H3.18157C2.86011 18.8865 2.55181 18.7534 2.3245 18.5164C2.09718 18.2795 1.96948 17.9582 1.96948 17.6231V10.043C1.96948 9.70791 2.09718 9.38657 2.3245 9.14964C2.55181 8.91272 2.86011 8.77961 3.18157 8.77961Z" stroke="#B5B5B5" stroke-width="2"/>
</svg>
